Coordinates
version=1
nRows=16
nColumns=40
inDegrees=yes

Units are S.I. units (second, meters, Newtons, ...)
If the header above contains a line with 'inDegrees', this indicates whether rotational values are in degrees (yes) or radians (no).

endheader
time	pelvis_tilt	pelvis_list	pelvis_rotation	pelvis_tx	pelvis_ty	pelvis_tz	hip_flexion_r	hip_adduction_r	hip_rotation_r	knee_angle_r	knee_angle_r_beta	ankle_angle_r	subtalar_angle_r	mtp_angle_r	hip_flexion_l	hip_adduction_l	hip_rotation_l	knee_angle_l	knee_angle_l_beta	ankle_angle_l	subtalar_angle_l	mtp_angle_l	lumbar_extension	lumbar_bending	lumbar_rotation	arm_flex_r	arm_add_r	arm_rot_r	elbow_flex_r	pro_sup_r	wrist_flex_r	wrist_dev_r	arm_flex_l	arm_add_l	arm_rot_l	elbow_flex_l	pro_sup_l	wrist_flex_l	wrist_dev_l
      0.37500000	    -10.88171419	     -1.96793732	      3.04032201	     -0.54605915	      0.93449751	      0.27405599	     37.01799606	     -0.63508829	    -12.46318956	     46.16883211	      0.80579813	     18.88109498	      0.00000000	      0.00000000	     25.42817594	     -5.76961179	      6.87101529	    117.08290615	      2.04348221	     -0.25610371	      0.00000000	      0.00000000	    -21.41818158	      6.23592125	    -10.34623136	      0.39063041	    -18.46108550	    -10.20284290	    100.02687679	     88.06923781	      0.00000000	      0.00000000	    -14.48260845	    -14.61434177	    -13.04471861	     79.29821220	     34.83799737	      0.00000000	      0.00000000
      0.38000000	    -10.39797079	     -1.52897331	      1.82295260	     -0.51419818	      0.93511614	      0.27572858	     34.86598947	     -0.21966439	    -11.15584749	     47.25961118	      0.82483582	     20.91783542	      0.00000000	      0.00000000	     27.76305848	     -5.58522435	      6.22256747	    118.16605885	      2.06238679	      0.40245609	      0.00000000	      0.00000000	    -21.88700928	      5.19042610	     -9.01229207	      3.97675894	    -18.08363276	     -9.56895563	    101.30531132	     88.11031714	      0.00000000	      0.00000000	    -16.23653582	    -14.19310861	    -13.05924209	     77.38117395	     34.70697345	      0.00000000	      0.00000000
      0.38500000	     -9.92951260	     -1.03779095	      0.66186904	     -0.48222158	      0.93590552	      0.27733642	     32.56243002	      0.01347837	     -9.89354657	     48.03036016	      0.83828793	     22.61817253	      0.00000000	      0.00000000	     30.13521750	     -5.38657867	      5.55589623	    118.88762238	      2.07498045	      0.99938049	      0.00000000	      0.00000000	    -22.24056946	      4.06730724	     -7.67009155	      7.35990967	    -17.75688776	     -9.06633881	    102.71514719	     88.29600029	      0.00000000	      0.00000000	    -18.06016786	    -13.88976293	    -12.92687652	     75.76074978	     35.67212979	      0.00000000	      0.00000000
      0.39000000	     -9.49319496	     -0.49786078	     -0.41138363	     -0.45012267	      0.93679261	      0.27883401	     30.15059489	      0.03672418	     -8.72319115	     48.51691096	      0.84677984	     23.96817924	      0.00000000	      0.00000000	     32.54606580	     -5.15892940	      4.89192060	    119.26285258	      2.08152945	      1.54851317	      0.00000000	      0.00000000	    -22.45179424	      2.88949589	     -6.36872281	     10.55881617	    -17.50864607	     -8.64668483	    104.23125485	     88.49653571	      0.00000000	      0.00000000	    -19.98139815	    -13.70422320	    -12.66133751	     74.53412826	     36.55700731	      0.00000000	      0.00000000
      0.39500000	     -9.10703807	      0.08520714	     -1.37685151	     -0.41790488	      0.93770030	      0.28020346	     27.68042391	     -0.15328830	     -7.67336530	     48.75609984	      0.85095447	     24.95149158	      0.00000000	      0.00000000	     34.99793473	     -4.89504106	      4.24660318	    119.31348836	      2.08241321	      2.06585040	      0.00000000	      0.00000000	    -22.50131109	      1.67885864	     -5.14462938	     13.59238957	    -17.35695562	     -8.23355915	    105.83879868	     88.13865110	      0.00000000	      0.00000000	    -22.01091492	    -13.63297320	    -12.30969192	     73.63495870	     38.14831137	      0.00000000	      0.00000000
      0.40000000	     -8.78935589	      0.70261702	     -2.22692902	     -0.38557770	      0.93855612	      0.28145434	     25.20328088	     -0.53719282	     -6.75433153	     48.78357243	      0.85143396	     25.55065923	      0.00000000	      0.00000000	     37.49374683	     -4.59941660	      3.63091364	    119.06393751	      2.07805773	      2.56439576	      0.00000000	      0.00000000	    -22.37857750	      0.45420609	     -4.01397101	     16.49497224	    -17.28152758	     -7.94187409	    107.46510058	     88.84666069	      0.00000000	      0.00000000	    -24.15304081	    -13.67321430	    -11.90562493	     73.05449780	     40.34456270	      0.00000000	      0.00000000
      0.40500000	     -8.55579168	      1.34358699	     -2.96319162	     -0.35314876	      0.93930452	      0.28261291	     22.76483515	     -1.08126273	     -5.96067695	     48.63308821	      0.84880751	     25.74828078	      0.00000000	      0.00000000	     40.03343789	     -4.28597082	      3.05193295	    118.53640353	      2.06885053	      3.05327869	      0.00000000	      0.00000000	    -22.07771638	     -0.76744172	     -2.99062446	     19.27801915	    -17.28933413	     -7.62225121	    109.13063162	     88.96386096	      0.00000000	      0.00000000	    -26.40393496	    -13.81070008	    -11.52627077	     72.67761004	     44.29546603	      0.00000000	      0.00000000
      0.41000000	     -8.41570496	      1.99609500	     -3.59011504	     -0.32061501	      0.93991833	      0.28370505	     20.39757912	     -1.74666300	     -5.27830964	     48.33399569	      0.84358737	     25.52950994	      0.00000000	      0.00000000	     42.60944059	     -3.97200343	      2.51531164	    117.74690758	      2.05507122	      3.53445725	      0.00000000	      0.00000000	    -21.60326943	     -1.97081863	     -2.07569765	     21.96426417	    -17.35776117	     -7.31100279	    110.80172445	     89.04274576	      0.00000000	      0.00000000	    -28.74471516	    -14.02664557	    -11.26604259	     72.39818576	     50.98330731	      0.00000000	      0.00000000
      0.41500000	     -8.36976274	      2.64944656	     -4.10948976	     -0.28795767	      0.94040385	      0.28474070	     18.11678079	     -2.49869893	     -4.69355877	     47.90890222	      0.83616808	     24.88160563	      0.00000000	      0.00000000	     45.20335299	     -3.66863524	      2.02617268	    116.70320988	      2.03685526	      4.00328612	      0.00000000	      0.00000000	    -20.96833539	     -3.14173749	     -1.27315101	     24.56537943	    -17.47377657	     -6.96557965	    112.47419855	     88.71011457	      0.00000000	      0.00000000	    -31.15551050	    -14.29415968	    -11.21380789	     72.21167676	     60.12532519	      0.00000000	      0.00000000
      0.42000000	     -8.40905530	      3.29671088	     -4.52072823	     -0.25514247	      0.94080003	      0.28571363	     15.92013098	     -3.31036770	     -4.19551090	     47.37142849	      0.82678740	     23.79362115	      0.00000000	      0.00000000	     47.78395556	     -3.37659424	      1.58526888	    115.40459903	      2.01419023	      4.44648691	      0.00000000	      0.00000000	    -20.19546327	     -4.27082419	     -0.58135866	     27.09035155	    -17.61587307	     -6.64113491	    114.12075466	     88.70027210	      0.00000000	      0.00000000	    -33.62491755	    -14.59066760	    -11.36881755	     72.22483655	     69.93966383	      0.00000000	      0.00000000
      0.42500000	     -8.51548978	      3.93590338	     -4.82428766	     -0.22212502	      0.94117255	      0.28661054	     13.79024638	     -4.16226428	     -3.77502749	     46.72603129	      0.81552309	     22.25840299	      0.00000000	      0.00000000	     50.30705653	     -3.08792255	      1.18547297	    113.84486250	      1.98696769	      4.84417954	      0.00000000	      0.00000000	    -19.31512732	     -5.35577379	      0.00333659	     29.53278497	    -17.77706898	     -6.34342763	    115.73889885	     89.09255084	      0.00000000	      0.00000000	    -36.14444913	    -14.89529209	    -11.68607790	     72.48920467	     79.11746156	      0.00000000	      0.00000000
      0.43000000	     -8.66462666	      4.56829216	     -5.02424677	     -0.18886049	      0.94160220	      0.28742126	     11.69981608	     -5.03944659	     -3.42406243	     45.96961805	      0.80232119	     20.27685870	      0.00000000	      0.00000000	     52.71954570	     -2.79202293	      0.81270163	    112.01709869	      1.95506719	      5.17609778	      0.00000000	      0.00000000	    -18.36036634	     -6.40068007	      0.49413119	     31.86505611	    -17.97251448	     -6.00970339	    117.35619300	     89.05224435	      0.00000000	      0.00000000	    -38.74857695	    -15.20337641	    -11.87074874	     73.18420267	     82.99053575	      0.00000000	      0.00000000
      0.43500000	     -8.83055508	      5.19492665	     -5.12911304	     -0.15531459	      0.94216830	      0.28814465	      9.61898114	     -5.92733997	     -3.13656694	     45.09558894	      0.78706651	     17.86541743	      0.00000000	      0.00000000	     54.96756583	     -2.48163310	      0.45060150	    109.91792559	      1.91842971	      5.42964959	      0.00000000	      0.00000000	    -17.37103119	     -7.41196850	      0.89309220	     34.07963547	    -18.19276543	     -5.66705323	    118.96573070	     88.98280040	      0.00000000	      0.00000000	    -41.38367528	    -15.47924635	    -12.11517760	     74.04884612	     84.89000399	      0.00000000	      0.00000000
      0.44000000	     -8.99140153	      5.81482439	     -5.15125430	     -0.12147203	      0.94293285	      0.28878797	      7.52387358	     -6.80992210	     -2.90795243	     44.10000890	      0.76969036	     15.05996806	      0.00000000	      0.00000000	     57.00568146	     -2.15496553	      0.08456867	    107.54862748	      1.87707766	      5.60225567	      0.00000000	      0.00000000	    -16.38037569	     -8.39537641	      1.20881712	     36.16172651	    -18.43341067	     -5.31377045	    120.57248059	     88.87464562	      0.00000000	      0.00000000	    -44.01624588	    -15.69519103	    -12.50568715	     74.98951686	     85.92879479	      0.00000000	      0.00000000
      0.44500000	     -9.13299292	      6.42485714	     -5.10676939	     -0.08734043	      0.94393072	      0.28936566	      5.40321173	     -7.66962256	     -2.73166555	     42.98752281	      0.75027381	     11.92248220	      0.00000000	      0.00000000	     58.80270284	     -1.81599633	     -0.29703777	    104.91370034	      1.83108950	      5.69754628	      0.00000000	      0.00000000	    -15.41179349	     -9.35466102	      1.45562027	     38.09399603	    -18.68889463	     -4.95495636	    122.18347103	     88.71405247	      0.00000000	      0.00000000	    -46.62006006	    -15.82895293	    -13.08433982	     75.96071009	     86.58760609	      0.00000000	      0.00000000
      0.45000000	     -9.24976466	      7.02113794	     -5.01509809	     -0.05294983	      0.94516841	      0.28989862	      3.26127785	     -8.48901146	     -2.59519410	     41.77505837	      0.72911231	      8.54303075	      0.00000000	      0.00000000	     60.34260858	     -1.47322264	     -0.70302012	    102.01813017	      1.78055227	      5.72018239	      0.00000000	      0.00000000	    -14.47759480	    -10.29212225	      1.65297023	     39.85683891	    -18.95341221	     -4.60241045	    123.80875832	     88.47599321	      0.00000000	      0.00000000	    -49.17182442	    -15.86528794	    -13.86429386	     76.94019824	     87.05809376	      0.00000000	      0.00000000
